<?xml version="1.0" encoding="UTF-8" standalone="no"?><!DOCTYPE svg PUBLIC "-//W3C//DTD SVG 1.1//EN" "http://www.w3.org/Graphics/SVG/1.1/DTD/svg11.dtd"><svg width="100%" height="100%" viewBox="0 0 48 48" version="1.1" xmlns="http://www.w3.org/2000/svg" xmlns:xlink="http://www.w3.org/1999/xlink" xml:space="preserve" xmlns:serif="http://www.serif.com/" style="fill-rule:evenodd;clip-rule:evenodd;stroke-linejoin:round;stroke-miterlimit:2;"><rect id="bluesky" x="0" y="0" width="48" height="48" style="fill:none;"/><clipPath id="_clip1"><rect x="0" y="0" width="48" height="48"/></clipPath><g clip-path="url(#_clip1)"><path d="M10.405,5.713c5.503,4.132 11.422,12.509 13.595,17.004c2.173,-4.495 8.092,-12.872 13.595,-17.004c3.971,-2.981 10.405,-5.287 10.405,2.052c0,1.466 -0.84,12.314 -1.333,14.075c-1.714,6.123 -7.957,7.685 -13.511,6.739c9.708,1.653 12.177,7.125 6.844,12.598c-10.129,10.394 -14.558,-2.608 -15.693,-5.939c-0.208,-0.611 -0.306,-0.897 -0.307,-0.654c-0.001,-0.243 -0.099,0.043 -0.307,0.654c-1.135,3.331 -5.564,16.333 -15.693,5.939c-5.333,-5.473 -2.864,-10.945 6.844,-12.598c-5.554,0.946 -11.797,-0.616 -13.511,-6.739c-0.493,-1.761 -1.333,-12.609 -1.333,-14.075c-0,-7.339 6.434,-5.033 10.405,-2.052Z" style="fill:#1185fe;fill-rule:nonzero;"/></g></svg>