<?xml version="1.0" encoding="UTF-8" standalone="no"?><!DOCTYPE svg PUBLIC "-//W3C//DTD SVG 1.1//EN" "http://www.w3.org/Graphics/SVG/1.1/DTD/svg11.dtd"><svg width="100%" height="100%" viewBox="0 0 48 48" version="1.1" xmlns="http://www.w3.org/2000/svg" xmlns:xlink="http://www.w3.org/1999/xlink" xml:space="preserve" xmlns:serif="http://www.serif.com/" style="fill-rule:evenodd;clip-rule:evenodd;stroke-linejoin:round;stroke-miterlimit:2;"><rect id="cyan4s" x="0" y="0" width="48" height="48" style="fill:none;"/><clipPath id="_clip1"><rect id="cyan4s1" serif:id="cyan4s" x="0" y="0" width="48" height="48"/></clipPath><g clip-path="url(#_clip1)"><path d="M8.366,42.203c4.201,3.613 9.664,5.797 15.634,5.797c6.365,0 12.47,-2.529 16.971,-7.029l-8.486,-8.486c-2.25,2.251 -5.302,3.515 -8.485,3.515c-5.546,0 -10.218,-3.771 -11.591,-8.886l-4.043,15.089Zm-7.551,-11.985l14.701,-14.702c2.173,-2.172 5.173,-3.516 8.484,-3.516c3.183,-0 6.235,1.264 8.485,3.515l15.515,-15.515l-12,3.215c-3.617,-2.088 -7.751,-3.215 -12,-3.215c-13.246,-0 -24,10.754 -24,24c0,2.15 0.283,4.235 0.815,6.218Z" style="fill:#26bfb3;"/></g></svg>