<?xml version="1.0" encoding="UTF-8" standalone="no"?><!DOCTYPE svg PUBLIC "-//W3C//DTD SVG 1.1//EN" "http://www.w3.org/Graphics/SVG/1.1/DTD/svg11.dtd"><svg width="100%" height="100%" viewBox="0 0 48 48" version="1.1" xmlns="http://www.w3.org/2000/svg" xmlns:xlink="http://www.w3.org/1999/xlink" xml:space="preserve" xmlns:serif="http://www.serif.com/" style="fill-rule:evenodd;clip-rule:evenodd;stroke-linejoin:round;stroke-miterlimit:2;"><rect id="github" x="0" y="0" width="48" height="48" style="fill:none;"/><path d="M24.049,0.395c-13.328,0 -24.049,10.82 -24.049,24.197c0,10.721 6.885,19.77 16.426,22.967c1.18,0.246 1.623,-0.541 1.623,-1.181c0,-0.54 -0.049,-2.508 -0.049,-4.475c-6.689,1.426 -8.066,-2.902 -8.066,-2.902c-1.082,-2.803 -2.655,-3.541 -2.655,-3.541c-2.164,-1.475 0.147,-1.475 0.147,-1.475c2.41,0.148 3.689,2.508 3.689,2.508c2.164,3.689 5.606,2.656 6.983,2.017c0.197,-1.574 0.836,-2.656 1.525,-3.246c-5.312,-0.541 -10.918,-2.656 -10.918,-11.951c-0,-2.656 0.934,-4.82 2.459,-6.492c-0.246,-0.59 -1.082,-3.098 0.246,-6.393c-0,-0 2.016,-0.64 6.59,2.508c1.918,-0.541 3.984,-0.787 6,-0.787c2.016,0 4.082,0.295 6,0.787c4.574,-3.148 6.59,-2.508 6.59,-2.508c1.328,3.344 0.492,5.803 0.246,6.393c1.574,1.672 2.459,3.836 2.459,6.492c-0,9.295 -5.607,11.361 -10.967,11.951c0.885,0.737 1.623,2.213 1.623,4.475c-0,3.246 -0.049,5.853 -0.049,6.639c-0,0.64 0.442,1.427 1.622,1.181c9.591,-3.197 16.476,-12.246 16.476,-22.967c0.049,-13.377 -10.721,-24.197 -23.951,-24.197Z" style="fill:#1b1f24;fill-rule:nonzero;"/></svg>