<?xml version="1.0" encoding="UTF-8" standalone="no"?><!DOCTYPE svg PUBLIC "-//W3C//DTD SVG 1.1//EN" "http://www.w3.org/Graphics/SVG/1.1/DTD/svg11.dtd"><svg width="100%" height="100%" viewBox="0 0 48 48" version="1.1" xmlns="http://www.w3.org/2000/svg" xmlns:xlink="http://www.w3.org/1999/xlink" xml:space="preserve" xmlns:serif="http://www.serif.com/" style="fill-rule:evenodd;clip-rule:evenodd;stroke-linejoin:round;stroke-miterlimit:2;"><rect id="itchio" x="0" y="0" width="48" height="48" style="fill:none;"/><path d="M6.258,2.677c-2.094,1.243 -6.219,5.982 -6.258,7.225l0,2.057c0,2.608 2.437,4.899 4.651,4.899c2.657,0 4.871,-2.202 4.871,-4.816c0,2.614 2.138,4.816 4.796,4.816c2.657,0 4.727,-2.202 4.727,-4.816c-0,2.614 2.273,4.816 4.931,4.816l0.048,0c2.658,0 4.931,-2.202 4.931,-4.816c0,2.614 2.07,4.816 4.727,4.816c2.658,0 4.796,-2.202 4.796,-4.816c-0,2.614 2.214,4.816 4.871,4.816c2.214,0 4.651,-2.291 4.651,-4.899l0,-2.057c-0.039,-1.243 -4.164,-5.982 -6.258,-7.225c-6.507,-0.229 -11.018,-0.268 -17.742,-0.267c-6.724,0 -15.89,0.106 -17.742,0.267l-0,-0Zm12.753,12.953c-0.254,0.443 -0.569,0.849 -0.935,1.204c-1.003,0.981 -2.378,1.589 -3.894,1.589c-1.458,0.002 -2.86,-0.569 -3.902,-1.589c-0.364,-0.356 -0.64,-0.737 -0.893,-1.18l-0.001,0c-0.253,0.444 -0.605,0.825 -0.969,1.181c-1.043,1.02 -2.444,1.59 -3.902,1.589c-0.183,-0 -0.373,-0.051 -0.527,-0.103c-0.213,2.224 -0.304,4.35 -0.336,5.9l0,0.009c-0.004,0.787 -0.008,1.435 -0.012,2.334c0.041,4.667 -0.462,15.128 2.058,17.698c3.906,0.911 11.092,1.326 18.302,1.328l0.001,0c7.209,-0.002 14.396,-0.417 18.301,-1.328c2.52,-2.57 2.017,-13.031 2.058,-17.698c-0.004,-0.899 -0.008,-1.547 -0.012,-2.334l-0,-0.009c-0.032,-1.55 -0.122,-3.676 -0.336,-5.901c-0.154,0.053 -0.344,0.103 -0.527,0.103c-1.457,0.002 -2.859,-0.569 -3.902,-1.588c-0.364,-0.356 -0.716,-0.737 -0.969,-1.181l-0.001,-0.001c-0.253,0.444 -0.529,0.824 -0.893,1.18c-1.042,1.02 -2.444,1.591 -3.902,1.59c-1.516,-0 -2.891,-0.609 -3.894,-1.589c-0.366,-0.356 -0.681,-0.761 -0.935,-1.204c-0.251,0.442 -0.563,0.847 -0.927,1.204c-1.042,1.019 -2.444,1.59 -3.902,1.589c-0.053,-0 -0.106,-0.003 -0.159,-0.004l-0.001,-0c-0.053,0.001 -0.106,0.004 -0.159,0.004c-1.458,0.001 -2.86,-0.57 -3.903,-1.589c-0.363,-0.357 -0.675,-0.762 -0.926,-1.204l-0.001,0Zm-4.007,5.182l-0.001,0.002l0.003,0c1.587,0.004 2.997,0 4.744,1.907c1.375,-0.144 2.812,-0.216 4.249,-0.214l0.002,-0c1.437,-0.002 2.874,0.07 4.249,0.214c1.747,-1.907 3.157,-1.904 4.744,-1.907l0.003,0l-0.001,-0.002c0.75,0 3.75,0 5.84,5.87l2.244,8.053c1.664,5.991 -0.532,6.137 -3.272,6.143c-4.062,-0.152 -6.312,-3.102 -6.312,-6.052c-2.249,0.369 -4.872,0.553 -7.496,0.553l-0.001,0c-2.623,0 -5.247,-0.184 -7.496,-0.553c0,2.95 -2.249,5.9 -6.312,6.052c-2.739,-0.006 -4.935,-0.152 -3.272,-6.143l2.246,-8.052c2.09,-5.87 5.089,-5.87 5.839,-5.87l-0,-0.001Zm8.995,4.614l0,0.001c-0.003,0.004 -4.276,3.928 -5.045,5.324l2.799,-0.113l-0,2.441c-0,0.114 1.122,0.067 2.246,0.015l0.002,0c1.123,0.052 2.246,0.099 2.246,-0.015l0,-2.441l2.798,0.113c-0.768,-1.396 -5.045,-5.324 -5.045,-5.324l0,-0.001l-0,-0l-0.001,-0Z" style="fill:#fa5c5c;fill-rule:nonzero;"/></svg>