<?xml version="1.0" encoding="UTF-8" standalone="no"?><!DOCTYPE svg PUBLIC "-//W3C//DTD SVG 1.1//EN" "http://www.w3.org/Graphics/SVG/1.1/DTD/svg11.dtd"><svg width="100%" height="100%" viewBox="0 0 1280 640" version="1.1" xmlns="http://www.w3.org/2000/svg" xmlns:xlink="http://www.w3.org/1999/xlink" xml:space="preserve" xmlns:serif="http://www.serif.com/" style="fill-rule:evenodd;clip-rule:evenodd;stroke-linejoin:round;stroke-miterlimit:2;"><rect id="Artboard2" x="0" y="0" width="1280" height="640" style="fill:none;"/><clipPath id="_clip1"><rect x="0" y="0" width="1280" height="640"/></clipPath><g clip-path="url(#_clip1)"><rect x="0" y="0" width="1280" height="640" style="fill:url(#_Linear2);"/><path d="M356.736,360l36,6l-48,64l-60,-10l0,-240l72,12l0,168Zm120,-148l48,80l-156,-26l0,-72l108,18Zm48,92l-48,64l-108,-18l0,-72l156,26Zm-48,76l48,80l-72,-12l-48,-80l72,12Z" style="fill:#fff;"/><path d="M605.456,284.84l-0,-49.68l24.192,0c8.064,0 12.096,4.032 12.096,12.096l-0,8.208c-0,6 -2.232,9.744 -6.696,11.232l8.136,15.984l-1.224,2.16l-8.928,0l-8.784,-17.28l-8.424,0l-0,17.28l-10.368,0Zm10.368,-26.64l13.392,0c1.44,0 2.16,-0.72 2.16,-2.16l-0,-9.36c-0,-1.44 -0.72,-2.16 -2.16,-2.16l-13.392,0l-0,13.68Z" style="fill:#fff;fill-rule:nonzero;"/><path d="M652.112,284.84l-0,-49.68l10.368,0l-0,19.44l18.432,0l-0,-19.44l10.368,0l-0,49.68l-10.368,0l-0,-20.88l-18.432,0l-0,20.88l-10.368,0Z" style="fill:#fff;fill-rule:nonzero;"/><path d="M698.48,237.104l1.224,-1.944l8.856,0l10.8,21.096l10.8,-21.096l8.856,0l1.224,1.944l-15.696,30.168l-0,17.568l-10.368,0l-0,-17.568l-15.696,-30.168Z" style="fill:#fff;fill-rule:nonzero;"/><path d="M739.232,282.896l14.76,-47.736l15.84,0l14.76,47.736l-1.296,1.944l-8.64,0l-3.024,-10.08l-19.44,0l-3.024,10.08l-8.64,0l-1.296,-1.944Zm15.768,-17.496l13.824,0l-6.336,-20.88l-1.152,0l-6.336,20.88Z" style="fill:#fff;fill-rule:nonzero;"/><path d="M791.072,272.744l-0,-25.488c-0,-8.064 4.032,-12.096 12.096,-12.096l19.224,0l4.824,3.744l-0,5.616l-23.616,0c-1.44,0 -2.16,0.72 -2.16,2.16l-0,26.64c-0,1.44 0.72,2.16 2.16,2.16l23.616,0l-0,5.616l-4.824,3.744l-19.224,0c-8.064,0 -12.096,-4.032 -12.096,-12.096Z" style="fill:#fff;fill-rule:nonzero;"/><path d="M832.544,244.52l-0,-9.36l40.608,0l-0,9.36l-15.12,0l-0,40.32l-10.368,0l-0,-40.32l-15.12,0Z" style="fill:#fff;fill-rule:nonzero;"/><rect x="880.784" y="235.16" width="10.368" height="49.68" style="fill:#fff;fill-rule:nonzero;"/><path d="M902.24,272.744l-0,-25.488c-0,-8.064 4.032,-12.096 12.096,-12.096l16.416,0c8.064,0 12.096,4.032 12.096,12.096l-0,25.488c-0,8.064 -4.032,12.096 -12.096,12.096l-16.416,0c-8.064,0 -12.096,-4.032 -12.096,-12.096Zm10.368,0.576c-0,1.44 0.72,2.16 2.16,2.16l15.552,0c1.44,0 2.16,-0.72 2.16,-2.16l-0,-26.64c-0,-1.44 -0.72,-2.16 -2.16,-2.16l-15.552,0c-1.44,0 -2.16,0.72 -2.16,2.16l-0,26.64Z" style="fill:#fff;fill-rule:nonzero;"/><path d="M953.936,284.84l-0,-49.68l11.232,0l19.728,32.616l-0,-32.616l10.368,0l-0,49.68l-11.232,0l-19.728,-32.616l-0,32.616l-10.368,0Z" style="fill:#fff;fill-rule:nonzero;"/><path d="M604.736,404.84l-0,-99.36l12.096,-0l-0,88.416l48.384,-0l-0,10.944l-60.48,-0Z" style="fill:#fff;fill-rule:nonzero;"/><rect x="681.632" y="305.48" width="12.096" height="99.36" style="fill:#fff;fill-rule:nonzero;"/><path d="M709.568,308.072l1.728,-2.592l10.368,-0l27.936,88.416l3.456,-0l28.08,-88.416l10.224,-0l1.728,2.592l-31.392,96.768l-20.736,-0l-31.392,-96.768Z" style="fill:#fff;fill-rule:nonzero;"/><path d="M808.928,404.84l-0,-99.36l64.8,-0l-0,10.944l-52.704,-0l-0,30.816l48.384,-0l-0,10.944l-48.384,-0l-0,35.712l52.704,-0l-0,10.944l-64.8,-0Z" style="fill:#fff;fill-rule:nonzero;"/></g><defs><linearGradient id="_Linear2" x1="0" y1="0" x2="1" y2="0" gradientUnits="userSpaceOnUse" gradientTransform="matrix(1280,640,-640,1280,3.63798e-12,9.09495e-13)"><stop offset="0" style="stop-color:#8066ff;stop-opacity:1"/><stop offset="1" style="stop-color:#39f;stop-opacity:1"/></linearGradient></defs></svg>