<?xml version="1.0" encoding="UTF-8" standalone="no"?><!DOCTYPE svg PUBLIC "-//W3C//DTD SVG 1.1//EN" "http://www.w3.org/Graphics/SVG/1.1/DTD/svg11.dtd"><svg width="100%" height="100%" viewBox="0 0 48 48" version="1.1" xmlns="http://www.w3.org/2000/svg" xmlns:xlink="http://www.w3.org/1999/xlink" xml:space="preserve" xmlns:serif="http://www.serif.com/" style="fill-rule:evenodd;clip-rule:evenodd;stroke-linejoin:round;stroke-miterlimit:2;"><rect id="soundcloud" x="0" y="0" width="48" height="48" style="fill:none;"/><g id="Orange"><path d="M47.997,28.362c-0.201,3.575 -3.224,6.394 -6.804,6.344l-16.355,-0c-0.744,-0.007 -1.354,-0.619 -1.357,-1.364l-0,-17.609c-0.024,-0.617 0.335,-1.189 0.902,-1.434c0.567,-0.245 1.505,-1.043 4.673,-1.043c1.936,-0.003 3.836,0.52 5.499,1.51c2.623,1.543 4.481,4.118 5.121,7.093c0.564,-0.16 1.148,-0.24 1.734,-0.237c0.014,-0 0.028,-0 0.042,-0c3.592,-0 6.548,2.956 6.548,6.548c0,0.064 -0.001,0.128 -0.003,0.192Z" style="fill:#f50;fill-rule:nonzero;"/><path d="M21.439,16.847c0.002,-0.02 0.003,-0.039 0.003,-0.058c0,-0.292 -0.24,-0.532 -0.531,-0.532c-0.292,0 -0.531,0.24 -0.531,0.532c-0,0.019 0.001,0.038 0.003,0.058c-0.448,5.921 -0.794,11.471 -0,17.372c0.029,0.268 0.258,0.473 0.528,0.473c0.269,0 0.498,-0.205 0.528,-0.473c0.851,-5.953 0.493,-11.4 -0,-17.372Z" style="fill:#f50;fill-rule:nonzero;"/><path d="M18.136,18.895c-0.03,-0.281 -0.271,-0.497 -0.554,-0.497c-0.283,-0 -0.523,0.216 -0.553,0.497c-0.592,5.093 -0.592,10.238 -0,15.331c0.041,0.27 0.276,0.472 0.55,0.472c0.274,0 0.509,-0.202 0.551,-0.472c0.661,-5.089 0.663,-10.242 0.006,-15.331Z" style="fill:#f50;fill-rule:nonzero;"/><path d="M14.814,18.377c-0.03,-0.272 -0.262,-0.479 -0.535,-0.479c-0.273,-0 -0.504,0.207 -0.534,0.479c-0.506,5.402 -0.762,10.446 -0,15.836c-0,0.291 0.24,0.531 0.531,0.531c0.292,0 0.531,-0.24 0.531,-0.531c0.788,-5.46 0.545,-10.363 0.007,-15.836Z" style="fill:#f50;fill-rule:nonzero;"/><path d="M11.511,19.919c-0,-0.302 -0.249,-0.55 -0.551,-0.55c-0.302,-0 -0.55,0.248 -0.55,0.55c-0.611,4.752 -0.611,9.562 -0,14.313c0.03,0.275 0.264,0.485 0.541,0.485c0.276,0 0.511,-0.21 0.541,-0.485c0.662,-4.747 0.669,-9.563 0.019,-14.313Z" style="fill:#f50;fill-rule:nonzero;"/><path d="M8.176,23.498c-0,-0.299 -0.246,-0.545 -0.544,-0.545c-0.299,0 -0.544,0.246 -0.544,0.545c-0.788,3.687 -0.416,7.041 0.032,10.773c0.039,0.25 0.258,0.437 0.512,0.437c0.254,-0 0.472,-0.187 0.512,-0.437c0.493,-3.783 0.87,-7.061 0.032,-10.773Z" style="fill:#f50;fill-rule:nonzero;"/><path d="M4.866,22.934c-0.03,-0.285 -0.273,-0.503 -0.56,-0.503c-0.286,-0 -0.529,0.218 -0.56,0.503c-0.697,3.764 -0.467,7.08 0.019,10.837c0.052,0.57 1.018,0.564 1.082,0c0.538,-3.815 0.788,-7.035 0.019,-10.837Z" style="fill:#f50;fill-rule:nonzero;"/><path d="M1.525,24.778c-0.03,-0.285 -0.274,-0.504 -0.56,-0.504c-0.286,0 -0.53,0.219 -0.56,0.504c-0.64,2.528 -0.442,4.621 0.045,7.156c0.029,0.265 0.255,0.467 0.521,0.467c0.267,0 0.493,-0.202 0.522,-0.467c0.563,-2.586 0.839,-4.634 0.032,-7.156Z" style="fill:#f50;fill-rule:nonzero;"/></g></svg>