<?xml version="1.0" encoding="UTF-8" standalone="no"?><!DOCTYPE svg PUBLIC "-//W3C//DTD SVG 1.1//EN" "http://www.w3.org/Graphics/SVG/1.1/DTD/svg11.dtd"><svg width="100%" height="100%" viewBox="0 0 48 48" version="1.1" xmlns="http://www.w3.org/2000/svg" xmlns:xlink="http://www.w3.org/1999/xlink" xml:space="preserve" xmlns:serif="http://www.serif.com/" style="fill-rule:evenodd;clip-rule:evenodd;stroke-linejoin:round;stroke-miterlimit:2;"><rect id="steam" x="0" y="0" width="48" height="48" style="fill:none;"/><clipPath id="_clip1"><rect x="0" y="0" width="48" height="48"/></clipPath><g clip-path="url(#_clip1)"><path d="M28.134,15.289c-0.498,0.744 -0.763,1.619 -0.763,2.515l-0.027,-0.011c-0.002,0.598 0.115,1.19 0.344,1.742c0.228,0.552 0.564,1.053 0.987,1.476c0.424,0.421 0.926,0.755 1.479,0.981c0.553,0.227 1.145,0.342 1.743,0.339c0.896,-0 1.771,-0.266 2.515,-0.763c0.745,-0.498 1.325,-1.205 1.668,-2.032c0.342,-0.827 0.432,-1.737 0.257,-2.616c-0.174,-0.878 -0.606,-1.684 -1.238,-2.317c-0.634,-0.633 -1.44,-1.064 -2.319,-1.239c-0.877,-0.175 -1.787,-0.085 -2.615,0.257c-0.827,0.343 -1.534,0.923 -2.031,1.668Zm8.767,-0.837c0.662,0.992 1.015,2.159 1.014,3.352c-0.003,1.596 -0.638,3.127 -1.767,4.255c-1.129,1.129 -2.66,1.765 -4.256,1.767c-1.193,0.002 -2.359,-0.351 -3.351,-1.013c-0.992,-0.662 -1.766,-1.603 -2.223,-2.705c-0.457,-1.102 -0.577,-2.314 -0.344,-3.485c0.232,-1.169 0.807,-2.244 1.65,-3.088c0.843,-0.843 1.918,-1.418 3.088,-1.65c1.17,-0.232 2.382,-0.112 3.484,0.345c1.102,0.456 2.043,1.23 2.705,2.222Zm-21.821,21.941l-2.948,-1.22c0.427,0.891 1.105,1.638 1.95,2.15c0.844,0.512 1.82,0.767 2.807,0.734c0.988,-0.033 1.945,-0.352 2.753,-0.919c0.809,-0.567 1.436,-1.358 1.804,-2.274c0.367,-0.917 0.46,-1.922 0.267,-2.891c-0.194,-0.968 -0.665,-1.86 -1.356,-2.566c-0.692,-0.705 -1.574,-1.195 -2.539,-1.408c-0.964,-0.213 -1.97,-0.141 -2.895,0.208l3.042,1.257c0.919,0.383 1.648,1.115 2.027,2.035c0.379,0.92 0.377,1.953 -0.005,2.872c-0.383,0.919 -1.114,1.648 -2.035,2.027c-0.92,0.379 -1.953,0.378 -2.872,-0.005Zm8.87,-36.393c-6.027,0.001 -11.833,2.271 -16.262,6.359c-4.429,4.087 -7.157,9.693 -7.64,15.7l12.853,5.318c1.125,-0.772 2.458,-1.184 3.823,-1.181l0.379,-0l5.714,-8.284l-0,-0.119c0.006,-1.789 0.543,-3.535 1.541,-5.018c0.998,-1.484 2.413,-2.639 4.067,-3.318c1.654,-0.68 3.472,-0.855 5.225,-0.502c1.753,0.353 3.362,1.217 4.624,2.484c1.262,1.267 2.121,2.879 2.467,4.633c0.347,1.754 0.166,3.572 -0.52,5.223c-0.686,1.652 -1.846,3.063 -3.333,4.055c-1.487,0.994 -3.235,1.523 -5.023,1.523l-0.206,0l-8.132,5.817l-0,0.32c0.004,1.687 -0.62,3.314 -1.75,4.566c-1.13,1.251 -2.687,2.037 -4.365,2.204c-1.678,0.168 -3.358,-0.296 -4.713,-1.3c-1.355,-1.004 -2.288,-2.477 -2.617,-4.13l-9.189,-3.796c1.217,4.293 3.606,8.162 6.901,11.171c3.295,3.009 7.363,5.04 11.749,5.863c4.385,0.823 8.913,0.407 13.075,-1.202c4.162,-1.61 7.792,-4.347 10.483,-7.907c2.69,-3.559 4.335,-7.799 4.748,-12.242c0.413,-4.442 -0.421,-8.912 -2.409,-12.907c-1.988,-3.994 -5.052,-7.355 -8.845,-9.704c-3.793,-2.349 -8.167,-3.594 -12.629,-3.593l-0.016,-0.033Z" style="fill:#221e1f;fill-rule:nonzero;"/></g></svg>